<svg width="16" height="17" viewBox="0 0 16 17" fill="none" xmlns="http://www.w3.org/2000/svg">
<path d="M7.66406 1.12109L6.96094 1.78906C6.78516 1.96484 6.78516 2.24609 6.96094 2.38672L12.4102 7.83594H0.421875C0.175781 7.83594 0 8.04688 0 8.25781V9.24219C0 9.48828 0.175781 9.66406 0.421875 9.66406H12.4102L6.96094 15.1484C6.78516 15.2891 6.78516 15.5703 6.96094 15.7461L7.66406 16.4141C7.80469 16.5898 8.08594 16.5898 8.26172 16.4141L15.6094 9.06641C15.7852 8.89062 15.7852 8.64453 15.6094 8.46875L8.26172 1.12109C8.08594 0.945312 7.80469 0.945312 7.66406 1.12109Z" fill="#0B6E76"/>
</svg>
